<svg xmlns="http://www.w3.org/2000/svg" xmlns:xlink="http://www.w3.org/1999/xlink" width="800" height="800" viewBox="0 0 800 800">
  <defs>
    <pattern id="New_Pattern_22" data-name="New Pattern 22" width="320.82" height="284.75" patternTransform="translate(-67.6 -827.69) scale(1.37)" patternUnits="userSpaceOnUse" viewBox="0 0 320.82 284.75">
      <rect width="320.82" height="284.75" style="fill: none"/>
      <g>
        <rect y="249.16" width="320.82" height="71.19"/>
        <g>
          <rect x="24" y="257.91" width="100.48" height="14.5" rx="7.25" style="fill: #3a4d57"/>
          <path d="M163.29,272.41h-6.1a7.25,7.25,0,0,1-7.25-7.25h0a7.24,7.24,0,0,1,7.25-7.25h6.1a7.25,7.25,0,0,1,7.25,7.25h0A7.26,7.26,0,0,1,163.29,272.41Z" style="fill: #3a4d57"/>
          <path d="M286.64,272.41h-58.8a7.25,7.25,0,0,1-7.25-7.25h0a7.24,7.24,0,0,1,7.25-7.25h58.8a7.25,7.25,0,0,1,7.25,7.25h0A7.26,7.26,0,0,1,286.64,272.41Z" style="fill: #3a4d57"/>
        </g>
      </g>
      <g>
        <rect y="177.97" width="320.82" height="71.19"/>
        <g>
          <rect x="24" y="186.72" width="100.48" height="14.5" rx="7.25" style="fill: #3a4d57"/>
          <path d="M163.29,201.22h-6.1a7.25,7.25,0,0,1-7.25-7.25h0a7.25,7.25,0,0,1,7.25-7.25h6.1a7.26,7.26,0,0,1,7.25,7.25h0A7.26,7.26,0,0,1,163.29,201.22Z" style="fill: #3a4d57"/>
          <g>
            <path d="M122.88,242.39H92a7.26,7.26,0,0,1-7.25-7.25h0A7.25,7.25,0,0,1,92,227.89h30.87a7.25,7.25,0,0,1,7.25,7.25h0A7.26,7.26,0,0,1,122.88,242.39Z" style="fill: #3a4d57"/>
            <path d="M308.21,242.39H302.1a7.26,7.26,0,0,1-7.25-7.25h0a7.25,7.25,0,0,1,7.25-7.25h6.11a7.25,7.25,0,0,1,7.25,7.25h0A7.26,7.26,0,0,1,308.21,242.39Z" style="fill: #3a4d57"/>
            <path d="M245.86,242.39H187.61a7.26,7.26,0,0,1-7.25-7.25h0a7.25,7.25,0,0,1,7.25-7.25h58.25a7.25,7.25,0,0,1,7.25,7.25h0A7.26,7.26,0,0,1,245.86,242.39Z" style="fill: #3a4d57"/>
            <path d="M22,242.39H15.85a7.26,7.26,0,0,1-7.25-7.25h0a7.25,7.25,0,0,1,7.25-7.25H22a7.25,7.25,0,0,1,7.25,7.25h0A7.26,7.26,0,0,1,22,242.39Z" style="fill: #3a4d57"/>
          </g>
          <path d="M286.64,201.22h-58.8a7.25,7.25,0,0,1-7.25-7.25h0a7.25,7.25,0,0,1,7.25-7.25h58.8a7.26,7.26,0,0,1,7.25,7.25h0A7.26,7.26,0,0,1,286.64,201.22Z" style="fill: #3a4d57"/>
        </g>
      </g>
      <g>
        <rect y="106.78" width="320.82" height="71.19"/>
        <g>
          <rect x="24" y="115.53" width="100.48" height="14.5" rx="7.25" style="fill: #3a4d57"/>
          <path d="M163.29,130h-6.1a7.24,7.24,0,0,1-7.25-7.25h0a7.25,7.25,0,0,1,7.25-7.25h6.1a7.26,7.26,0,0,1,7.25,7.25h0A7.25,7.25,0,0,1,163.29,130Z" style="fill: #3a4d57"/>
          <g>
            <path d="M122.88,171.2H92A7.26,7.26,0,0,1,84.76,164h0A7.25,7.25,0,0,1,92,156.7h30.87a7.25,7.25,0,0,1,7.25,7.25h0A7.26,7.26,0,0,1,122.88,171.2Z" style="fill: #3a4d57"/>
            <path d="M308.21,171.2H302.1a7.26,7.26,0,0,1-7.25-7.25h0a7.25,7.25,0,0,1,7.25-7.25h6.11a7.25,7.25,0,0,1,7.25,7.25h0A7.26,7.26,0,0,1,308.21,171.2Z" style="fill: #3a4d57"/>
            <path d="M245.86,171.2H187.61a7.26,7.26,0,0,1-7.25-7.25h0a7.25,7.25,0,0,1,7.25-7.25h58.25a7.25,7.25,0,0,1,7.25,7.25h0A7.26,7.26,0,0,1,245.86,171.2Z" style="fill: #3a4d57"/>
            <path d="M22,171.2H15.85A7.26,7.26,0,0,1,8.6,164h0a7.25,7.25,0,0,1,7.25-7.25H22A7.25,7.25,0,0,1,29.21,164h0A7.26,7.26,0,0,1,22,171.2Z" style="fill: #3a4d57"/>
          </g>
          <path d="M286.64,130h-58.8a7.24,7.24,0,0,1-7.25-7.25h0a7.25,7.25,0,0,1,7.25-7.25h58.8a7.26,7.26,0,0,1,7.25,7.25h0A7.25,7.25,0,0,1,286.64,130Z" style="fill: #3a4d57"/>
        </g>
      </g>
      <g>
        <rect y="35.59" width="320.82" height="71.19"/>
        <g>
          <rect x="24" y="44.34" width="100.48" height="14.5" rx="7.25" style="fill: #3a4d57"/>
          <path d="M163.29,58.84h-6.1a7.24,7.24,0,0,1-7.25-7.25h0a7.25,7.25,0,0,1,7.25-7.25h6.1a7.26,7.26,0,0,1,7.25,7.25h0A7.25,7.25,0,0,1,163.29,58.84Z" style="fill: #3a4d57"/>
          <g>
            <path d="M122.88,100H92a7.26,7.26,0,0,1-7.25-7.25h0A7.26,7.26,0,0,1,92,85.51h30.87a7.26,7.26,0,0,1,7.25,7.25h0A7.26,7.26,0,0,1,122.88,100Z" style="fill: #3a4d57"/>
            <path d="M308.21,100H302.1a7.26,7.26,0,0,1-7.25-7.25h0a7.26,7.26,0,0,1,7.25-7.25h6.11a7.26,7.26,0,0,1,7.25,7.25h0A7.26,7.26,0,0,1,308.21,100Z" style="fill: #3a4d57"/>
            <path d="M245.86,100H187.61a7.26,7.26,0,0,1-7.25-7.25h0a7.26,7.26,0,0,1,7.25-7.25h58.25a7.26,7.26,0,0,1,7.25,7.25h0A7.26,7.26,0,0,1,245.86,100Z" style="fill: #3a4d57"/>
            <path d="M22,100H15.85A7.26,7.26,0,0,1,8.6,92.76h0a7.26,7.26,0,0,1,7.25-7.25H22a7.26,7.26,0,0,1,7.25,7.25h0A7.26,7.26,0,0,1,22,100Z" style="fill: #3a4d57"/>
          </g>
          <path d="M286.64,58.84h-58.8a7.24,7.24,0,0,1-7.25-7.25h0a7.25,7.25,0,0,1,7.25-7.25h58.8a7.26,7.26,0,0,1,7.25,7.25h0A7.25,7.25,0,0,1,286.64,58.84Z" style="fill: #3a4d57"/>
        </g>
      </g>
      <g>
        <rect y="-35.59" width="320.82" height="71.19"/>
        <g>
          <path d="M122.88,28.82H92a7.25,7.25,0,0,1-7.25-7.25h0A7.26,7.26,0,0,1,92,14.32h30.87a7.26,7.26,0,0,1,7.25,7.25h0A7.25,7.25,0,0,1,122.88,28.82Z" style="fill: #3a4d57"/>
          <path d="M308.21,28.82H302.1a7.25,7.25,0,0,1-7.25-7.25h0a7.26,7.26,0,0,1,7.25-7.25h6.11a7.26,7.26,0,0,1,7.25,7.25h0A7.25,7.25,0,0,1,308.21,28.82Z" style="fill: #3a4d57"/>
          <path d="M245.86,28.82H187.61a7.25,7.25,0,0,1-7.25-7.25h0a7.26,7.26,0,0,1,7.25-7.25h58.25a7.26,7.26,0,0,1,7.25,7.25h0A7.25,7.25,0,0,1,245.86,28.82Z" style="fill: #3a4d57"/>
          <path d="M22,28.82H15.85A7.25,7.25,0,0,1,8.6,21.57h0a7.26,7.26,0,0,1,7.25-7.25H22a7.26,7.26,0,0,1,7.25,7.25h0A7.25,7.25,0,0,1,22,28.82Z" style="fill: #3a4d57"/>
        </g>
      </g>
    </pattern>
    <pattern id="New_Pattern_21" data-name="New Pattern 21" width="100.5" height="100.5" patternTransform="translate(86.13 8.65)" patternUnits="userSpaceOnUse" viewBox="0 0 100.5 100.5">
      <rect width="100.5" height="100.5" style="fill: none"/>
      <g>
        <line x1="200.96" y1="5.21" x2="100.46" y2="5.21" style="fill: none;stroke: #bfba65;stroke-miterlimit: 10;stroke-width: 2px"/>
        <line x1="200.96" y1="15.22" x2="100.46" y2="15.22" style="fill: none;stroke: #bfba65;stroke-miterlimit: 10;stroke-width: 2px"/>
        <line x1="200.96" y1="25.23" x2="100.46" y2="25.23" style="fill: none;stroke: #bfba65;stroke-miterlimit: 10;stroke-width: 2px"/>
        <line x1="200.96" y1="35.24" x2="100.46" y2="35.24" style="fill: none;stroke: #bfba65;stroke-miterlimit: 10;stroke-width: 2px"/>
        <line x1="200.96" y1="45.25" x2="100.46" y2="45.25" style="fill: none;stroke: #bfba65;stroke-miterlimit: 10;stroke-width: 2px"/>
        <line x1="200.96" y1="55.26" x2="100.46" y2="55.26" style="fill: none;stroke: #bfba65;stroke-miterlimit: 10;stroke-width: 2px"/>
        <line x1="200.96" y1="65.26" x2="100.46" y2="65.26" style="fill: none;stroke: #bfba65;stroke-miterlimit: 10;stroke-width: 2px"/>
        <line x1="200.96" y1="75.27" x2="100.46" y2="75.27" style="fill: none;stroke: #bfba65;stroke-miterlimit: 10;stroke-width: 2px"/>
        <line x1="200.96" y1="85.28" x2="100.46" y2="85.28" style="fill: none;stroke: #bfba65;stroke-miterlimit: 10;stroke-width: 2px"/>
        <line x1="200.96" y1="95.29" x2="100.46" y2="95.29" style="fill: none;stroke: #bfba65;stroke-miterlimit: 10;stroke-width: 2px"/>
      </g>
      <g>
        <rect width="100.5" height="100.5" style="fill: #b5b14c"/>
        <g>
          <line x1="100.46" y1="5.21" x2="-0.04" y2="5.21" style="fill: none;stroke: #bfba65;stroke-miterlimit: 10;stroke-width: 2px"/>
          <line x1="100.46" y1="15.22" x2="-0.04" y2="15.22" style="fill: none;stroke: #bfba65;stroke-miterlimit: 10;stroke-width: 2px"/>
          <line x1="100.46" y1="25.23" x2="-0.04" y2="25.23" style="fill: none;stroke: #bfba65;stroke-miterlimit: 10;stroke-width: 2px"/>
          <line x1="100.46" y1="35.24" x2="-0.04" y2="35.24" style="fill: none;stroke: #bfba65;stroke-miterlimit: 10;stroke-width: 2px"/>
          <line x1="100.46" y1="45.25" x2="-0.04" y2="45.25" style="fill: none;stroke: #bfba65;stroke-miterlimit: 10;stroke-width: 2px"/>
          <line x1="100.46" y1="55.26" x2="-0.04" y2="55.26" style="fill: none;stroke: #bfba65;stroke-miterlimit: 10;stroke-width: 2px"/>
          <line x1="100.46" y1="65.26" x2="-0.04" y2="65.26" style="fill: none;stroke: #bfba65;stroke-miterlimit: 10;stroke-width: 2px"/>
          <line x1="100.46" y1="75.27" x2="-0.04" y2="75.27" style="fill: none;stroke: #bfba65;stroke-miterlimit: 10;stroke-width: 2px"/>
          <line x1="100.46" y1="85.28" x2="-0.04" y2="85.28" style="fill: none;stroke: #bfba65;stroke-miterlimit: 10;stroke-width: 2px"/>
          <line x1="100.46" y1="95.29" x2="-0.04" y2="95.29" style="fill: none;stroke: #bfba65;stroke-miterlimit: 10;stroke-width: 2px"/>
        </g>
      </g>
    </pattern>
    <pattern id="New_Pattern_13" data-name="New Pattern 13" width="55.89" height="55.89" patternTransform="translate(-37.79 -26.71)" patternUnits="userSpaceOnUse" viewBox="0 0 55.89 55.89">
      <rect width="55.89" height="55.89" style="fill: none"/>
      <path d="M16.34,7.3a2.67,2.67,0,1,1-2.66-2.66A2.66,2.66,0,0,1,16.34,7.3Z" style="fill: #e0d6ce"/>
      <path d="M28,19.14a2.67,2.67,0,1,1-2.67-2.67A2.67,2.67,0,0,1,28,19.14Z" style="fill: #e0d6ce"/>
      <path d="M50.68,45a1.24,1.24,0,1,1-1.23-1.24A1.24,1.24,0,0,1,50.68,45Z" style="fill: #e0d6ce"/>
      <circle cx="47.08" cy="12.96" r="1.24" style="fill: #e0d6ce"/>
      <path d="M13.48,18.39a1.24,1.24,0,1,1-1.23-1.23A1.23,1.23,0,0,1,13.48,18.39Z" style="fill: #e0d6ce"/>
      <path d="M29.18,25a1.24,1.24,0,1,1-1.24-1.24A1.24,1.24,0,0,1,29.18,25Z" style="fill: #e0d6ce"/>
      <circle cx="4.11" cy="8.54" r="1.24" style="fill: #e0d6ce"/>
      <path d="M11,39.64A1.24,1.24,0,1,1,9.77,38.4,1.23,1.23,0,0,1,11,39.64Z" style="fill: #e0d6ce"/>
      <path d="M50.68,27.5a1.24,1.24,0,1,1-1.23-1.23A1.23,1.23,0,0,1,50.68,27.5Z" style="fill: #e0d6ce"/>
      <circle cx="52.79" cy="5.87" r="1.24" style="fill: #e0d6ce"/>
      <path d="M38.61,42.3A2.67,2.67,0,1,1,36,39.64,2.66,2.66,0,0,1,38.61,42.3Z" style="fill: #e0d6ce"/>
      <path d="M13.68,51.47A2.67,2.67,0,1,1,11,48.8,2.68,2.68,0,0,1,13.68,51.47Z" style="fill: #e0d6ce"/>
    </pattern>
  </defs>
  <g style="isolation: isolate">
    <g id="BACKGROUND">
      <g>
        <rect width="800" height="800" style="fill: #f9f8f7"/>
        <rect width="800" height="800" style="fill: #a0d2e8"/>
        <rect width="800" height="800" style="opacity: 0.39;mix-blend-mode: screen;fill: url(#New_Pattern_22)"/>
        <path d="M736.22,466.32c-51.4-4.26-64.24-22.79-100-14.1-38.24,9.3-41.45,34.86-79.47,37.17-23.44,1.42-26-8.06-60.24-7.69-27.06.29-33,6.31-57.68,6.41-27.65.11-38.46-7.38-60.24-11.54-63.51-12.13-79.77,30.85-142.27,21.79-37.28-5.4-33.95-21.46-82-29.48-33.06-5.51-58.56-2.65-93.57,1.28A598.66,598.66,0,0,0,0,480.2v41.52H800V462.84A237.94,237.94,0,0,1,736.22,466.32Z" style="fill: #1e7f98"/>
        <rect y="565.51" width="800" height="234.49" style="fill: url(#New_Pattern_21)"/>
      </g>
    </g>
    <g id="OBJECTS">
      <g>
        <path d="M201.79,280.34h-31v-6.88a6.88,6.88,0,0,0-6.88-6.88H87.45a6.88,6.88,0,0,0-6.87,6.88v6.88H76a6.87,6.87,0,0,0-6.87,6.87h0A6.88,6.88,0,0,0,76,294.09H201.79a6.88,6.88,0,0,0,6.88-6.88h0A6.87,6.87,0,0,0,201.79,280.34Z" style="fill: #d8e9f2"/>
        <g>
          <rect x="744.53" y="551.33" width="8.68" height="85.98" style="fill: #bc8867"/>
          <path d="M715.36,331.54a33.54,33.54,0,0,0,1.25,9c-.42,0-.83-.06-1.25-.06a33.47,33.47,0,0,0-22.65,58.14,39.74,39.74,0,0,0,2.49,77.89,33.48,33.48,0,0,0,22.93,57.9c.28,0,.55,0,.83,0a30.59,30.59,0,0,0,29.91,24.24V298A33.51,33.51,0,0,0,715.36,331.54Z" style="fill: #d6ce69"/>
          <path d="M800,345.45a33.29,33.29,0,0,0-17.62-5c-.43,0-.84.05-1.25.06A33.42,33.42,0,0,0,748.87,298V558.58a30.59,30.59,0,0,0,29.91-24.24c.27,0,.55,0,.83,0A33.37,33.37,0,0,0,800,527.44Z" style="fill: #bfbb68"/>
          <path d="M800,345.45a33.29,33.29,0,0,0-17.62-5c-.43,0-.84.05-1.25.06A33.42,33.42,0,0,0,748.87,298V558.58a30.59,30.59,0,0,0,29.91-24.24c.27,0,.55,0,.83,0A33.37,33.37,0,0,0,800,527.44Z" style="mix-blend-mode: color-burn;fill: url(#New_Pattern_13)"/>
        </g>
        <g>
          <rect x="72.45" y="520.59" width="7.45" height="73.73" style="fill: #bc8867"/>
          <g>
            <path d="M76.17,530.33V338.1S-39.59,530.33,76.17,530.33Z" style="fill: #d6ce69"/>
            <path d="M76.17,338.1V530.33C191.94,530.33,76.17,338.1,76.17,338.1Z" style="fill: #bfbb68"/>
          </g>
          <g style="mix-blend-mode: color-burn">
            <path d="M76.17,530.33V338.1S-39.59,530.33,76.17,530.33Z" style="fill: url(#New_Pattern_13)"/>
            <path d="M76.17,338.1V530.33C191.94,530.33,76.17,338.1,76.17,338.1Z" style="fill: url(#New_Pattern_13)"/>
          </g>
        </g>
        <g>
          <rect x="154.31" y="505.3" width="9.38" height="92.87" style="fill: #bc8867"/>
          <g>
            <path d="M159,517.57V275.43S13.18,517.57,159,517.57Z" style="fill: #d6ce69"/>
            <path d="M715.36,331.54a33.54,33.54,0,0,0,1.25,9c-.42,0-.83-.06-1.25-.06a33.47,33.47,0,0,0-22.65,58.14,39.74,39.74,0,0,0,2.49,77.89,33.48,33.48,0,0,0,22.93,57.9c.28,0,.55,0,.83,0a30.59,30.59,0,0,0,29.91,24.24V298A33.51,33.51,0,0,0,715.36,331.54Z" style="fill: #d6ce69"/>
            <path d="M715.36,331.54a33.54,33.54,0,0,0,1.25,9c-.42,0-.83-.06-1.25-.06a33.47,33.47,0,0,0-22.65,58.14,39.74,39.74,0,0,0,2.49,77.89,33.48,33.48,0,0,0,22.93,57.9c.28,0,.55,0,.83,0a30.59,30.59,0,0,0,29.91,24.24V298A33.51,33.51,0,0,0,715.36,331.54Z" style="mix-blend-mode: color-burn;fill: url(#New_Pattern_13)"/>
            <path d="M159,517.57V275.43S13.18,517.57,159,517.57Z" style="mix-blend-mode: color-burn;fill: url(#New_Pattern_13)"/>
            <path d="M159,275.43V517.57C304.83,517.57,159,275.43,159,275.43Z" style="fill: #bfbb68"/>
            <line x1="800" y1="527.44" x2="800" y2="345.45" style="fill: #bfbb68"/>
            <path d="M159,275.43V517.57C304.83,517.57,159,275.43,159,275.43Z" style="mix-blend-mode: color-burn;fill: url(#New_Pattern_13)"/>
          </g>
        </g>
        <g>
          <rect y="612.01" width="800" height="22.71" style="fill: #b37955"/>
          <rect y="532.47" width="800" height="22.71" style="fill: #b37955"/>
          <g>
            <rect x="26.76" y="492.13" width="40.07" height="160.08" style="fill: #c89e82"/>
            <rect x="105.25" y="492.13" width="40.07" height="160.08" style="fill: #c89e82"/>
            <rect x="183.74" y="492.13" width="40.07" height="160.08" style="fill: #c89e82"/>
            <rect x="262.23" y="492.13" width="40.07" height="160.08" style="fill: #c89e82"/>
            <rect x="340.72" y="492.13" width="40.07" height="160.08" style="fill: #c89e82"/>
            <rect x="419.21" y="492.13" width="40.07" height="160.08" style="fill: #c89e82"/>
            <rect x="497.7" y="492.13" width="40.07" height="160.08" style="fill: #c89e82"/>
            <rect x="576.19" y="492.13" width="40.07" height="160.08" style="fill: #c89e82"/>
            <rect x="654.68" y="492.13" width="40.07" height="160.08" style="fill: #c89e82"/>
            <rect x="733.16" y="492.13" width="40.07" height="160.08" style="fill: #c89e82"/>
          </g>
          <g>
            <rect x="29.1" y="492.13" width="40.07" height="160.08" style="fill: #bc8867"/>
            <rect x="107.59" y="492.13" width="40.07" height="160.08" style="fill: #bc8867"/>
            <rect x="186.07" y="492.13" width="40.07" height="160.08" style="fill: #bc8867"/>
            <rect x="264.56" y="492.13" width="40.07" height="160.08" style="fill: #bc8867"/>
            <rect x="343.05" y="492.13" width="40.07" height="160.08" style="fill: #bc8867"/>
            <rect x="421.54" y="492.13" width="40.07" height="160.08" style="fill: #bc8867"/>
            <rect x="500.03" y="492.13" width="40.07" height="160.08" style="fill: #bc8867"/>
            <rect x="578.52" y="492.13" width="40.07" height="160.08" style="fill: #bc8867"/>
            <rect x="657.01" y="492.13" width="40.07" height="160.08" style="fill: #bc8867"/>
            <rect x="735.5" y="492.13" width="40.07" height="160.08" style="fill: #bc8867"/>
          </g>
          <g>
            <g>
              <path d="M52.82,543.09a2.69,2.69,0,1,1-2.69-2.69A2.69,2.69,0,0,1,52.82,543.09Z" style="fill: #b37955"/>
              <path d="M52.82,623.37a2.69,2.69,0,1,1-2.69-2.69A2.69,2.69,0,0,1,52.82,623.37Z" style="fill: #b37955"/>
            </g>
            <g>
              <path d="M130.66,543.09A2.69,2.69,0,1,1,128,540.4,2.69,2.69,0,0,1,130.66,543.09Z" style="fill: #b37955"/>
              <path d="M130.66,623.37a2.69,2.69,0,1,1-2.69-2.69A2.69,2.69,0,0,1,130.66,623.37Z" style="fill: #b37955"/>
            </g>
            <g>
              <path d="M209.14,543.09a2.68,2.68,0,1,1-2.68-2.69A2.68,2.68,0,0,1,209.14,543.09Z" style="fill: #b37955"/>
              <path d="M209.14,623.37a2.68,2.68,0,1,1-2.68-2.69A2.68,2.68,0,0,1,209.14,623.37Z" style="fill: #b37955"/>
            </g>
          </g>
          <g>
            <g>
              <path d="M288.61,543.09a2.69,2.69,0,1,1-2.69-2.69A2.68,2.68,0,0,1,288.61,543.09Z" style="fill: #b37955"/>
              <path d="M288.61,623.37a2.69,2.69,0,1,1-2.69-2.69A2.68,2.68,0,0,1,288.61,623.37Z" style="fill: #b37955"/>
            </g>
            <g>
              <path d="M366.45,543.09a2.69,2.69,0,1,1-2.69-2.69A2.68,2.68,0,0,1,366.45,543.09Z" style="fill: #b37955"/>
              <path d="M366.45,623.37a2.69,2.69,0,1,1-2.69-2.69A2.68,2.68,0,0,1,366.45,623.37Z" style="fill: #b37955"/>
            </g>
            <g>
              <path d="M444.94,543.09a2.69,2.69,0,1,1-2.69-2.69A2.68,2.68,0,0,1,444.94,543.09Z" style="fill: #b37955"/>
              <path d="M444.94,623.37a2.69,2.69,0,1,1-2.69-2.69A2.68,2.68,0,0,1,444.94,623.37Z" style="fill: #b37955"/>
            </g>
          </g>
          <g>
            <g>
              <path d="M523.43,543.09a2.68,2.68,0,1,1-2.68-2.69A2.68,2.68,0,0,1,523.43,543.09Z" style="fill: #b37955"/>
              <path d="M523.43,623.37a2.68,2.68,0,1,1-2.68-2.69A2.68,2.68,0,0,1,523.43,623.37Z" style="fill: #b37955"/>
            </g>
            <g>
              <path d="M601.27,543.09a2.68,2.68,0,1,1-2.68-2.69A2.68,2.68,0,0,1,601.27,543.09Z" style="fill: #b37955"/>
              <path d="M601.27,623.37a2.68,2.68,0,1,1-2.68-2.69A2.68,2.68,0,0,1,601.27,623.37Z" style="fill: #b37955"/>
            </g>
            <g>
              <path d="M679.76,543.09a2.68,2.68,0,1,1-2.68-2.69A2.68,2.68,0,0,1,679.76,543.09Z" style="fill: #b37955"/>
              <path d="M679.76,623.37a2.68,2.68,0,1,1-2.68-2.69A2.68,2.68,0,0,1,679.76,623.37Z" style="fill: #b37955"/>
            </g>
            <g>
              <path d="M759.22,543.09a2.69,2.69,0,1,1-2.69-2.69A2.68,2.68,0,0,1,759.22,543.09Z" style="fill: #b37955"/>
              <path d="M759.22,623.37a2.69,2.69,0,1,1-2.69-2.69A2.68,2.68,0,0,1,759.22,623.37Z" style="fill: #b37955"/>
            </g>
          </g>
        </g>
        <g>
          <g>
            <ellipse cx="421.92" cy="706.56" rx="115.27" ry="12.15" style="fill: #e7e6e5;mix-blend-mode: multiply"/>
            <rect x="406.17" y="361.37" width="33.74" height="348.28" style="fill: #8c2c35"/>
            <rect x="406.17" y="477.08" width="16.92" height="232.57" style="fill: #bb4c4b"/>
            <path d="M461.47,261.1h-93.6V361.37H504.69v-57A43.22,43.22,0,0,0,461.47,261.1Z" style="fill: #bb4c4b"/>
            <path d="M380,296.89H504a43.25,43.25,0,0,0-20.65-29.82H380Z" style="fill: #c66161"/>
            <path d="M368.3,261.1h1.22a41.58,41.58,0,0,1,41.58,41.58v58.69a0,0,0,0,1,0,0H324.64a0,0,0,0,1,0,0V304.75A43.65,43.65,0,0,1,368.3,261.1Z" style="fill: #fa6564"/>
            <path d="M328.74,357.27V304.33a39.13,39.13,0,0,1,78.26,0v52.94Z" style="fill: #3a4d57"/>
            <path d="M324.64,361.37H411.1a0,0,0,0,1,0,0v58.49a41.77,41.77,0,0,1-41.77,41.77h-2.45a42.23,42.23,0,0,1-42.23-42.23v-58A0,0,0,0,1,324.64,361.37Z" style="fill: #bb4c4b"/>
            <path d="M328.74,365.47v52.27c0,20.13,15,37.51,35,39.58A39.17,39.17,0,0,0,407,418.41V365.47Z" style="fill: #c66161"/>
            <path d="M430.75,312.31V246.26h-5.67v66.05a6,6,0,1,0,5.67,0Z" style="fill: #3a4d57"/>
            <path d="M430.55,317.59a2.64,2.64,0,1,1-2.63-2.64A2.63,2.63,0,0,1,430.55,317.59Z" style="fill: #3a4d57"/>
            <path d="M425.08,239.89h20.46a2.53,2.53,0,0,1,2.53,2.53v7.7a2.53,2.53,0,0,1-2.53,2.53H425.08a0,0,0,0,1,0,0V239.89A0,0,0,0,1,425.08,239.89Z" style="fill: #3a4d57"/>
          </g>
          <g>
            <rect x="277.87" y="275.92" width="107.15" height="70.63" transform="translate(44.54 -41.48) rotate(7.68)" style="fill: #e9e5d9"/>
            <path d="M283.06,269.08,325.5,311a9.65,9.65,0,0,0,11.73,1.58l52-29.19Z" style="fill: #d8d0bc"/>
            <path d="M283.06,269.08l43,37.5a10.76,10.76,0,0,0,11.72,1.58l51.43-24.77Z" style="fill: #f9f8f7"/>
          </g>
        </g>
        <g>
          <path d="M276.34,277.13h-.14l-47.84-6.49a1,1,0,1,1,.27-2l47.84,6.49a1,1,0,0,1,.86,1.12A1,1,0,0,1,276.34,277.13Z" style="fill: #e4f2f7"/>
          <path d="M273.83,295.59h-.13L232,289.93a1,1,0,1,1,.27-2L274,293.6a1,1,0,0,1-.14,2Z" style="fill: #e4f2f7"/>
          <path d="M271.33,314.06h-.14l-35.57-4.82a1,1,0,0,1-.86-1.13,1,1,0,0,1,1.12-.85l35.58,4.82a1,1,0,0,1-.13,2Z" style="fill: #e4f2f7"/>
          <path d="M268.83,332.52h-.14l-29.44-4a1,1,0,1,1,.26-2l29.45,4a1,1,0,0,1-.13,2Z" style="fill: #e4f2f7"/>
        </g>
        <g>
          <path d="M720.82,410.42l.94,1.91,2.11.31a2.48,2.48,0,0,1,1.38,4.23l-1.53,1.49.36,2.1a2.48,2.48,0,0,1-3.6,2.62l-1.89-1-1.89,1a2.48,2.48,0,0,1-3.6-2.62l.36-2.1-1.52-1.49a2.48,2.48,0,0,1,1.37-4.23l2.11-.31,1-1.91A2.48,2.48,0,0,1,720.82,410.42Z" style="fill: #f9f8f7"/>
          <circle cx="718.59" cy="416.2" r="2.72" style="fill: #fbbe68"/>
        </g>
        <g>
          <path d="M785.2,360.93l.95,1.92,2.11.3a2.49,2.49,0,0,1,1.37,4.24l-1.52,1.49.36,2.1a2.48,2.48,0,0,1-3.6,2.61l-1.89-1-1.89,1a2.48,2.48,0,0,1-3.6-2.61l.36-2.1-1.53-1.49a2.49,2.49,0,0,1,1.38-4.24l2.11-.3.94-1.92A2.48,2.48,0,0,1,785.2,360.93Z" style="fill: #f9f8f7"/>
          <circle cx="782.98" cy="366.72" r="2.72" style="fill: #fbbe68"/>
        </g>
        <g>
          <path d="M725.51,339.14l.94,1.91,2.11.31a2.48,2.48,0,0,1,1.38,4.23l-1.53,1.49.36,2.1a2.48,2.48,0,0,1-3.6,2.62l-1.89-1-1.89,1a2.48,2.48,0,0,1-3.6-2.62l.36-2.1-1.53-1.49a2.48,2.48,0,0,1,1.38-4.23l2.11-.31.95-1.91A2.48,2.48,0,0,1,725.51,339.14Z" style="fill: #f9f8f7"/>
          <circle cx="723.28" cy="344.92" r="2.72" style="fill: #fbbe68"/>
        </g>
        <g>
          <path d="M792.61,501.84l.95,1.91,2.11.31a2.48,2.48,0,0,1,1.37,4.23l-1.53,1.49.37,2.1a2.49,2.49,0,0,1-3.61,2.62l-1.88-1-1.89,1a2.48,2.48,0,0,1-3.6-2.62l.36-2.1-1.53-1.49a2.48,2.48,0,0,1,1.38-4.23l2.11-.31.94-1.91A2.48,2.48,0,0,1,792.61,501.84Z" style="fill: #f9f8f7"/>
          <circle cx="790.39" cy="507.62" r="2.72" style="fill: #fbbe68"/>
        </g>
        <g>
          <path d="M699.31,422.52l.94,1.92,2.11.3a2.49,2.49,0,0,1,1.38,4.24l-1.53,1.49.36,2.1a2.48,2.48,0,0,1-3.6,2.61l-1.89-1-1.89,1a2.48,2.48,0,0,1-3.6-2.61l.36-2.1L690.43,429a2.48,2.48,0,0,1,1.37-4.24l2.11-.3,1-1.92A2.48,2.48,0,0,1,699.31,422.52Z" style="fill: #f9f8f7"/>
          <circle cx="697.08" cy="428.31" r="2.72" style="fill: #fbbe68"/>
        </g>
        <path d="M395.38,90.89h-62V88.23a15.72,15.72,0,0,0-15.72-15.72H232.92A15.72,15.72,0,0,0,217.21,57H158a15.72,15.72,0,0,0-15.72,15.72V90.89h-28a15.72,15.72,0,0,0,0,31.44H395.38a15.72,15.72,0,1,0,0-31.44Z" style="fill: #d8e9f2"/>
        <path d="M757.13,224H742.79v-5.89a6.79,6.79,0,0,0-6.78-6.78H720.49v-1.89a6.77,6.77,0,0,0-6.77-6.77H670.23a6.78,6.78,0,0,0-6.78,6.77v1.89H558.89a6.78,6.78,0,0,0-6.77,6.78V224H526.84a6.78,6.78,0,0,0,0,13.55H757.13a6.78,6.78,0,1,0,0-13.55Z" style="fill: #d8e9f2"/>
      </g>
    </g>
  </g>
</svg>